<svg width="37" height="37" viewBox="0 0 37 37" fill="none" xmlns="http://www.w3.org/2000/svg">
<path d="M7.05304 7.05311C7.4867 6.61958 8.07479 6.37604 8.68798 6.37604C9.30117 6.37604 9.88926 6.61958 10.3229 7.05311L18.4999 15.2301L26.6769 7.05311C27.1131 6.63187 27.6972 6.39878 28.3035 6.40405C28.9099 6.40932 29.4899 6.65252 29.9186 7.08128C30.3474 7.51003 30.5906 8.09004 30.5958 8.69636C30.6011 9.30269 30.368 9.88684 29.9468 10.323L21.7698 18.5L29.9468 26.677C30.368 27.1131 30.6011 27.6973 30.5958 28.3036C30.5906 28.9099 30.3474 29.4899 29.9186 29.9187C29.4899 30.3474 28.9099 30.5906 28.3035 30.5959C27.6972 30.6012 27.1131 30.3681 26.6769 29.9468L18.4999 21.7698L10.3229 29.9468C9.88678 30.3681 9.30263 30.6012 8.6963 30.5959C8.08997 30.5906 7.50997 30.3474 7.08121 29.9187C6.65246 29.4899 6.40926 28.9099 6.40399 28.3036C6.39872 27.6973 6.6318 27.1131 7.05304 26.677L15.23 18.5L7.05304 10.323C6.61952 9.88932 6.37598 9.30123 6.37598 8.68804C6.37598 8.07485 6.61952 7.48676 7.05304 7.05311V7.05311Z" fill="black"/>
</svg>
