<svg width="63" height="21" viewBox="0 0 63 21" fill="none" xmlns="http://www.w3.org/2000/svg">
<circle cx="19.38" cy="10.5" r="7.5" stroke="#F26335" stroke-width="2"/>
<circle cx="8.5" cy="10.5" r="8.5" fill="#F26335"/>
<path d="M44.3849 10.25V10.9531C44.3849 11.9199 44.2589 12.7871 44.007 13.5547C43.755 14.3223 43.3947 14.9756 42.9259 15.5146C42.463 16.0537 41.9064 16.4668 41.256 16.7539C40.6056 17.0352 39.8849 17.1758 39.0939 17.1758C38.3087 17.1758 37.5909 17.0352 36.9406 16.7539C36.296 16.4668 35.7365 16.0537 35.2618 15.5146C34.7872 14.9756 34.4181 14.3223 34.1544 13.5547C33.8966 12.7871 33.7677 11.9199 33.7677 10.9531V10.25C33.7677 9.2832 33.8966 8.41895 34.1544 7.65723C34.4122 6.88965 34.7755 6.23633 35.2443 5.69727C35.7189 5.15234 36.2784 4.73926 36.923 4.45801C37.5734 4.1709 38.2911 4.02734 39.0763 4.02734C39.8673 4.02734 40.588 4.1709 41.2384 4.45801C41.8888 4.73926 42.4484 5.15234 42.9171 5.69727C43.3859 6.23633 43.7462 6.88965 43.9982 7.65723C44.256 8.41895 44.3849 9.2832 44.3849 10.25ZM42.1788 10.9531V10.2324C42.1788 9.51758 42.1085 8.8877 41.9679 8.34277C41.8331 7.79199 41.631 7.33203 41.3615 6.96289C41.0978 6.58789 40.7726 6.30664 40.3859 6.11914C39.9991 5.92578 39.5626 5.8291 39.0763 5.8291C38.59 5.8291 38.1564 5.92578 37.7755 6.11914C37.3947 6.30664 37.0695 6.58789 36.7999 6.96289C36.5363 7.33203 36.3341 7.79199 36.1935 8.34277C36.0529 8.8877 35.9825 9.51758 35.9825 10.2324V10.9531C35.9825 11.668 36.0529 12.3008 36.1935 12.8516C36.3341 13.4023 36.5392 13.8682 36.8087 14.249C37.0841 14.624 37.4122 14.9082 37.7931 15.1016C38.174 15.2891 38.6075 15.3828 39.0939 15.3828C39.5861 15.3828 40.0226 15.2891 40.4034 15.1016C40.7843 14.9082 41.1066 14.624 41.3702 14.249C41.6339 13.8682 41.8331 13.4023 41.9679 12.8516C42.1085 12.3008 42.1788 11.668 42.1788 10.9531ZM48.507 9.30078V17H46.3888V7.49023H48.4103L48.507 9.30078ZM51.4161 7.42871L51.3986 9.39746C51.2697 9.37402 51.129 9.35645 50.9767 9.34473C50.8302 9.33301 50.6837 9.32715 50.5372 9.32715C50.174 9.32715 49.8546 9.37988 49.5792 9.48535C49.3038 9.58496 49.0724 9.73145 48.8849 9.9248C48.7032 10.1123 48.5626 10.3408 48.463 10.6104C48.3634 10.8799 48.3048 11.1816 48.2872 11.5156L47.8038 11.5508C47.8038 10.9531 47.8624 10.3994 47.9796 9.88965C48.0968 9.37988 48.2726 8.93164 48.507 8.54492C48.7472 8.1582 49.046 7.85645 49.4034 7.63965C49.7667 7.42285 50.1857 7.31445 50.6603 7.31445C50.7892 7.31445 50.9269 7.32617 51.0734 7.34961C51.2257 7.37305 51.34 7.39941 51.4161 7.42871ZM61.6906 7.49023V9.03711H56.3292V7.49023H61.6906ZM57.8761 5.16113H59.9943V14.3721C59.9943 14.665 60.0353 14.8906 60.1173 15.0488C60.2052 15.2012 60.3253 15.3037 60.4777 15.3564C60.63 15.4092 60.8087 15.4355 61.0138 15.4355C61.1603 15.4355 61.3009 15.4268 61.4357 15.4092C61.5704 15.3916 61.6788 15.374 61.7609 15.3564L61.7697 16.9736C61.5939 17.0264 61.3888 17.0732 61.1544 17.1143C60.9259 17.1553 60.6622 17.1758 60.3634 17.1758C59.8771 17.1758 59.4464 17.0908 59.0714 16.9209C58.6964 16.7451 58.4034 16.4609 58.1925 16.0684C57.9816 15.6758 57.8761 15.1543 57.8761 14.5039V5.16113Z" fill="#0F0744"/>
<path d="M55.0109 7.49023V17H52.8839V7.49023H55.0109ZM52.7433 4.99414C52.7433 4.67187 52.8488 4.40527 53.0597 4.19434C53.2765 3.97754 53.5753 3.86914 53.9562 3.86914C54.3312 3.86914 54.6271 3.97754 54.8439 4.19434C55.0607 4.40527 55.1691 4.67187 55.1691 4.99414C55.1691 5.31055 55.0607 5.57422 54.8439 5.78516C54.6271 5.99609 54.3312 6.10156 53.9562 6.10156C53.5753 6.10156 53.2765 5.99609 53.0597 5.78516C52.8488 5.57422 52.7433 5.31055 52.7433 4.99414Z" fill="#F26335"/>
</svg>
