<svg width="458" height="304" viewBox="0 0 458 304" fill="none" xmlns="http://www.w3.org/2000/svg">
<path d="M232.019 85.4423C227.935 78.6909 223.096 71.4823 215.518 69.2778C206.741 66.7248 197.726 71.7964 190.079 76.801C167.209 91.7683 145.186 107.989 124.108 125.388L124.131 125.65C140.541 124.518 156.95 123.387 173.359 122.256C185.215 121.439 197.478 120.509 207.956 114.903C211.931 112.775 215.807 109.934 220.312 109.736C225.909 109.49 230.79 113.397 234.625 117.48C257.312 141.629 263.878 178.559 289.331 199.776C273.281 160.21 254.117 121.979 232.019 85.4423V85.4423Z" fill="#F2F2F2"/>
<path d="M371.475 290.272C368.966 287.105 367.941 286.363 365.466 283.167C345.316 257.116 326.376 230.185 308.647 202.374C296.604 183.486 285.159 164.235 274.311 144.621C269.147 135.297 264.124 125.899 259.242 116.428C255.454 109.085 251.751 101.697 248.132 94.2658C247.097 92.1433 246.092 90.011 245.091 87.8738C242.734 82.848 240.42 77.7978 237.935 72.8404C235.104 67.19 231.658 61.2664 226.459 57.4702C224.093 55.6717 221.264 54.5835 218.302 54.3328C214.07 54.0595 210.165 55.8064 206.494 57.7142C179.637 71.7132 154.493 89.2645 131.75 109.236C108.95 129.252 88.5698 151.866 71.0259 176.616C70.4891 177.382 69.2199 176.65 69.7617 175.879C71.8949 172.863 74.0704 169.88 76.2881 166.93C103.864 130.269 137.677 98.7426 176.181 73.7918C182.658 69.5956 189.258 65.5961 195.98 61.7934C199.367 59.8758 202.77 57.9826 206.23 56.2065C209.623 54.4645 213.225 52.8982 217.101 52.8397C230.291 52.6348 237.12 67.5657 241.811 77.6124C243.285 80.7743 244.777 83.9264 246.287 87.0687C251.993 98.9988 257.919 110.82 264.065 122.532C267.858 129.764 271.734 136.953 275.693 144.099C288.013 166.354 301.108 188.159 314.978 209.513C333.352 237.798 351.579 262.786 372.51 289.237C373.086 289.969 372.056 291.013 371.475 290.272Z" fill="#E4E4E4"/>
<path d="M130.447 101.863C129.681 101.009 128.919 100.155 128.148 99.3014C122.066 92.5776 115.539 85.9318 107.187 82.0771C103.205 80.1811 98.8576 79.1737 94.4468 79.125C89.8877 79.1397 85.431 80.3351 81.2185 82.0088C79.2268 82.8041 77.279 83.7068 75.3608 84.668C73.169 85.7708 71.0162 86.9467 68.8734 88.1324C64.8511 90.3574 60.8809 92.68 56.9629 95.1002C49.1672 99.9162 41.6157 105.1 34.3083 110.651C30.5203 113.53 26.8104 116.503 23.1786 119.57C19.8008 122.42 16.4912 125.346 13.25 128.348C12.5569 128.988 11.522 127.953 12.2151 127.314C13.0693 126.519 13.9333 125.728 14.7974 124.948C17.238 122.742 19.7178 120.579 22.2367 118.458C26.8299 114.584 31.5421 110.859 36.3732 107.284C43.8857 101.722 51.6568 96.5364 59.6865 91.7285C63.6991 89.3279 67.7669 87.0281 71.89 84.8291C73.1349 84.1655 74.3943 83.5165 75.6683 82.9017C78.5591 81.4441 81.5627 80.2219 84.65 79.247C89.0233 77.8328 93.6503 77.3785 98.2154 77.9149C102.623 78.5558 106.87 80.0243 110.731 82.243C118.932 86.8247 125.292 93.9096 131.482 100.824C132.107 101.526 131.077 102.566 130.447 101.863Z" fill="#E4E4E4"/>
<path d="M298.476 171.54L318.127 164.355L327.883 160.788C331.061 159.626 334.231 158.304 337.516 157.472C340.37 156.657 343.401 156.696 346.234 157.583C348.761 158.518 351.073 159.951 353.034 161.797C355.038 163.641 356.902 165.631 358.612 167.751C360.736 170.303 362.829 172.881 364.931 175.451C373.608 186.058 382.227 196.71 390.79 207.409C399.353 218.107 407.858 228.851 416.306 239.64C424.775 250.456 433.186 261.317 441.538 272.223C442.561 273.559 443.583 274.896 444.605 276.233C445.169 276.972 446.442 276.244 445.869 275.495C437.455 264.479 428.983 253.508 420.452 242.582C411.899 231.631 403.288 220.725 394.618 209.866C385.947 199.008 377.219 188.196 368.431 177.432C366.242 174.75 364.049 172.071 361.853 169.395C360 167.138 358.168 164.857 356.136 162.756C352.406 158.9 347.745 155.492 342.167 155.399C338.887 155.345 335.713 156.385 332.665 157.487C329.38 158.675 326.103 159.885 322.822 161.085L303.033 168.32L298.086 170.128C297.208 170.449 297.588 171.864 298.476 171.54L298.476 171.54Z" fill="#E4E4E4"/>
<path d="M104.601 90.5377C94.6151 85.4074 81.8265 86.4122 72.6499 92.8217C90.1535 95.8403 107.466 99.8792 124.497 104.918C117.425 100.775 111.892 94.2834 104.601 90.5377Z" fill="#F2F2F2"/>
<path d="M72.5519 92.8041L70.6294 94.3661C71.2797 93.8194 71.9557 93.3068 72.6502 92.8217C72.6174 92.8161 72.5847 92.8097 72.5519 92.8041Z" fill="#F2F2F2"/>
<path d="M352.295 171.612C350.36 169.258 348.269 166.793 345.376 165.837L342.674 165.944C363.237 202.265 391.009 234.002 424.286 259.207C400.289 230.009 376.292 200.81 352.295 171.612Z" fill="#F2F2F2"/>
<path d="M184.317 152.195C185.567 156.735 188.383 160.686 192.267 163.351C193.769 164.373 195.545 165.353 196.059 167.095C196.329 168.205 196.163 169.377 195.594 170.368C195.026 171.347 194.335 172.249 193.538 173.052L193.465 173.324C189.739 171.117 186.193 168.324 184.135 164.515C182.077 160.705 181.789 155.711 184.317 152.195" fill="#F2F2F2"/>
<path d="M308.384 260.244C309.634 264.784 312.45 268.736 316.334 271.4C317.836 272.422 319.612 273.402 320.126 275.144C320.396 276.254 320.23 277.426 319.661 278.417C319.093 279.396 318.402 280.298 317.605 281.101L317.532 281.373C313.806 279.166 310.26 276.373 308.202 272.564C306.143 268.754 305.856 263.761 308.384 260.244" fill="#F2F2F2"/>
<path d="M60.782 252.792C62.0321 257.332 64.8483 261.284 68.7325 263.948C70.2341 264.97 72.0108 265.95 72.5245 267.692C72.7948 268.803 72.6282 269.974 72.0593 270.966C71.4915 271.944 70.8005 272.846 70.0033 273.649L69.9305 273.921C66.204 271.714 62.6588 268.922 60.6003 265.112C58.5419 261.302 58.2545 256.309 60.782 252.792" fill="#F2F2F2"/>
<path d="M345.71 54.2907C360.708 54.2907 372.866 42.1373 372.866 27.1453C372.866 12.1534 360.708 0 345.71 0C330.712 0 318.554 12.1534 318.554 27.1453C318.554 42.1373 330.712 54.2907 345.71 54.2907Z" fill="#F26335"/>
<path d="M394.717 6.31816C381.555 4.53991 366.53 11.6507 363.119 24.4808C362.259 22.1996 360.696 20.2506 358.656 18.9155C356.615 17.5803 354.203 16.9281 351.768 17.053C349.332 17.1779 347 18.0736 345.107 19.6105C343.214 21.1474 341.859 23.246 341.237 25.6032L342.744 26.6819C370.948 32.7786 400.144 32.6466 428.291 26.2953C419.136 16.6779 407.878 8.09638 394.717 6.31816Z" fill="#F0F0F0"/>
<path d="M338.274 42.5119C325.113 40.7336 310.087 47.8444 306.676 60.6745C305.817 58.3933 304.254 56.4444 302.213 55.1092C300.173 53.7741 297.761 53.1218 295.325 53.2467C292.89 53.3717 290.557 54.2673 288.664 55.8042C286.772 57.3411 285.416 59.4397 284.795 61.7969L286.302 62.8756C314.506 68.9723 343.701 68.8403 371.849 62.489C362.694 52.8716 351.435 44.2901 338.274 42.5119Z" fill="#F0F0F0"/>
<path d="M453.144 49.3556C453.089 49.3557 453.035 49.3473 452.983 49.3307C312.193 4.82397 188.106 10.644 108.801 23.3637C98.0084 25.0941 87.187 27.0927 76.6373 29.3043C73.944 29.8683 71.1498 30.4728 68.3325 31.1023C64.9678 31.8513 61.6479 32.6227 58.4645 33.394C57.0896 33.7194 55.7416 34.0474 54.4205 34.378C52.4193 34.8718 50.3887 35.3864 48.212 35.9519C45.7797 36.5787 43.3084 37.2363 40.8652 37.9063C40.8563 37.9094 40.8471 37.912 40.8379 37.9141L40.8382 37.9146C38.0785 38.6678 35.3335 39.4428 32.6789 40.2168C31.2421 40.6315 29.8548 41.0406 28.5259 41.4445C28.3775 41.4856 28.2459 41.5251 28.1125 41.5656L27.827 41.6524C27.6617 41.7028 27.4984 41.7522 27.3351 41.799L27.3247 41.8021L27.325 41.8026L26.8929 41.9368C26.3776 42.0927 25.8747 42.245 25.3802 42.3968C12.3106 46.4241 5.1258 49.2891 5.05482 49.3172C4.98991 49.3432 4.92052 49.3562 4.8506 49.3554C4.78067 49.3546 4.71159 49.34 4.6473 49.3125C4.58301 49.285 4.52476 49.2452 4.47588 49.1952C4.42701 49.1452 4.38846 49.0861 4.36244 49.0212C4.33642 48.9563 4.32345 48.8869 4.32425 48.817C4.32506 48.7471 4.33962 48.6781 4.36712 48.6138C4.39462 48.5496 4.43451 48.4913 4.48452 48.4425C4.53453 48.3936 4.59367 48.3551 4.65858 48.3291C4.73008 48.301 11.95 45.4214 25.0672 41.379C25.5635 41.2267 26.0676 41.0744 26.5845 40.918L26.9859 40.7932C26.9997 40.788 27.0135 40.7839 27.0275 40.7797C27.19 40.7335 27.3523 40.6841 27.5171 40.6342L27.8031 40.5474C27.9456 40.5042 28.086 40.4616 28.2298 40.4221C29.5495 40.0208 30.9416 39.6107 32.382 39.1944C35.0376 38.4199 37.7852 37.6449 40.547 36.8907C40.5555 36.8876 40.5644 36.8855 40.573 36.8829V36.8823C43.0247 36.2103 45.5051 35.5501 47.9452 34.9212C50.1253 34.3551 52.1598 33.8395 54.1644 33.3447C55.4912 33.0146 56.8418 32.6859 58.2162 32.3586C61.4033 31.5862 64.7299 30.8138 68.1006 30.0633C70.9223 29.4333 73.7212 28.8272 76.4189 28.2627C86.985 26.0474 97.8233 24.0457 108.632 22.3127C188.051 9.57483 312.316 3.7454 453.304 48.3161C453.425 48.3543 453.529 48.4347 453.596 48.5426C453.663 48.6505 453.689 48.7789 453.67 48.9045C453.651 49.0301 453.587 49.1446 453.491 49.2274C453.394 49.3101 453.271 49.3556 453.144 49.3556V49.3556Z" fill="#CCCCCC"/>
<path d="M140.035 223.465C139.851 222.926 139.54 222.438 139.13 222.043C138.978 221.903 138.814 221.776 138.64 221.666C137.25 220.739 135.174 220.532 133.853 221.666C133.72 221.781 133.597 221.907 133.486 222.043C133.092 222.528 132.687 223.002 132.272 223.465C131.59 224.242 130.893 224.992 130.163 225.721C129.955 225.924 129.748 226.131 129.535 226.333C129.412 226.456 129.29 226.573 129.167 226.69C128.699 227.137 128.22 227.568 127.735 227.994C127.479 228.223 127.224 228.447 126.963 228.665C126.574 228.989 126.185 229.314 125.791 229.628C125.754 229.655 125.717 229.681 125.68 229.713C125.669 229.719 125.664 229.729 125.653 229.735C125.648 229.735 125.642 229.735 125.637 229.745C125.623 229.751 125.61 229.76 125.6 229.772C125.483 229.852 125.403 229.905 125.344 229.953C125.365 229.942 125.387 229.926 125.408 229.916C125.312 229.99 125.211 230.065 125.115 230.139C124.183 230.826 123.23 231.486 122.256 232.103C119.845 233.646 117.313 234.99 114.684 236.122C114.508 236.191 114.327 236.265 114.146 236.335C107.264 239.153 99.7978 240.253 92.3945 239.539C91.6384 239.48 90.8822 239.4 90.1261 239.299C89.2529 239.172 88.385 239.017 87.5223 238.842C84.2383 238.187 81.0251 237.217 77.9271 235.946C74.0518 234.172 70.366 232.011 66.9261 229.495C66.3936 229.117 65.8558 228.739 65.318 228.372C65.9304 226.871 66.5321 225.37 67.1178 223.858C67.4107 223.129 67.6929 222.4 67.9698 221.666C70.1476 216.008 72.1923 210.296 74.1518 204.564C76.1326 198.757 78.0016 192.916 79.7588 187.042C79.9399 186.446 80.1156 185.85 80.286 185.254C81.2072 182.15 82.0911 179.04 82.9377 175.923C83.0176 175.62 83.1028 175.322 83.1773 175.018C83.4222 174.124 83.6619 173.23 83.8962 172.336C84.4286 170.318 83.2252 167.907 81.106 167.423C80.0856 167.161 79.0035 167.306 78.0877 167.826C77.1719 168.346 76.4939 169.202 76.1965 170.212C75.9676 171.074 75.7386 171.931 75.5043 172.793C74.3808 176.961 73.1987 181.114 71.958 185.254C71.777 185.85 71.596 186.446 71.4149 187.042C68.678 196.058 65.673 204.984 62.4001 213.82C62.006 214.89 61.6067 215.956 61.202 217.019C61.005 217.541 60.808 218.062 60.6056 218.584C60.2169 219.611 59.8176 220.638 59.4182 221.666C59.1892 222.267 58.9549 222.868 58.7207 223.465C58.5662 223.842 58.4171 224.22 58.2681 224.593C56.7499 224.048 55.1769 223.67 53.5769 223.465L53.3213 223.433C52.0809 223.283 50.8264 223.294 49.5887 223.465C47.7362 223.681 45.9539 224.301 44.3676 225.281C42.7813 226.262 41.4299 227.578 40.4088 229.139C37.8689 233.136 37.9008 238.852 41.4631 242.248C45.1318 245.745 50.6856 245.718 55.004 243.531C57.2924 242.293 59.222 240.485 60.6056 238.283C61.1357 237.484 61.6227 236.658 62.0646 235.808C62.1764 235.882 62.2882 235.957 62.4001 236.037C62.826 236.335 63.252 236.638 63.6727 236.936C66.1237 238.711 68.7066 240.297 71.3989 241.679C77.188 244.555 83.4196 246.439 89.8333 247.251C89.9771 247.267 90.1155 247.289 90.2593 247.305C90.9675 247.395 91.681 247.464 92.3945 247.523C102.63 248.294 112.878 246.2 121.99 241.476C122.762 241.077 123.527 240.658 124.285 240.22C125.461 239.539 126.611 238.815 127.735 238.049C128.347 237.633 128.944 237.213 129.535 236.771C132.118 234.87 134.525 232.741 136.729 230.411C137.564 229.532 138.365 228.626 139.13 227.691C139.853 226.926 140.27 225.922 140.301 224.87C140.297 224.389 140.207 223.913 140.035 223.465V223.465ZM51.8624 236.143C51.9742 236.063 52.086 235.978 52.1925 235.893C52.1606 235.973 52.0061 236.063 51.8624 236.143H51.8624ZM53.5716 234.424C53.4491 234.562 53.3373 234.701 53.2148 234.839C52.8423 235.256 52.442 235.647 52.0168 236.01C51.9582 236.063 51.8943 236.116 51.8304 236.164C51.8297 236.164 51.829 236.164 51.8283 236.165C51.8277 236.165 51.8271 236.165 51.8266 236.166C51.8261 236.166 51.8257 236.167 51.8255 236.168C51.8252 236.168 51.8251 236.169 51.8251 236.17C51.7482 236.204 51.6735 236.243 51.6014 236.287C51.3725 236.425 51.1382 236.553 50.8986 236.67C50.4294 236.843 49.9468 236.976 49.4556 237.069C49.0781 237.097 48.6993 237.1 48.3214 237.08H48.3107C48.0499 237.022 47.7922 236.951 47.5386 236.867C47.4109 236.803 47.2884 236.729 47.1659 236.654C47.118 236.611 47.0754 236.569 47.0488 236.542C46.9967 236.495 46.9487 236.443 46.905 236.388C46.905 236.387 46.9049 236.386 46.9046 236.386C46.9044 236.385 46.904 236.385 46.9035 236.384C46.903 236.384 46.9024 236.383 46.9018 236.383C46.9011 236.383 46.9004 236.383 46.8997 236.383C46.8411 236.276 46.7772 236.17 46.7187 236.063C46.7156 236.06 46.7137 236.057 46.7133 236.053C46.6707 235.92 46.6335 235.781 46.6015 235.643C46.59 235.4 46.5917 235.156 46.6068 234.914C46.6783 234.573 46.7744 234.239 46.8944 233.913C47.0022 233.682 47.1249 233.458 47.2618 233.242C47.2724 233.221 47.3257 233.136 47.3843 233.04C47.3896 233.035 47.3896 233.035 47.3896 233.029C47.4694 232.939 47.5493 232.843 47.6345 232.758C47.7783 232.598 47.9327 232.46 48.0871 232.316C48.3874 232.12 48.6985 231.94 49.019 231.779C49.5273 231.598 50.0489 231.457 50.5791 231.358C51.361 231.296 52.1468 231.303 52.9273 231.379C53.6667 231.508 54.3962 231.687 55.1105 231.917C54.6775 232.757 54.1846 233.564 53.6355 234.333C53.6142 234.365 53.5929 234.397 53.5716 234.424V234.424ZM47.6505 232.673C47.6036 232.748 47.5482 232.818 47.4854 232.88C47.5276 232.802 47.5835 232.732 47.6505 232.673V232.673Z" fill="#3F3D56"/>
<path d="M124.029 169.105C123.981 170.776 123.934 172.447 123.886 174.119C123.784 177.829 123.68 181.54 123.571 185.254C123.46 189.432 123.342 193.608 123.22 197.783C123.161 199.939 123.101 202.094 123.039 204.25C122.874 210.057 122.711 215.862 122.549 221.666C122.533 222.267 122.512 222.863 122.496 223.465C122.416 226.344 122.336 229.224 122.256 232.103C122.166 235.228 122.077 238.352 121.99 241.476C121.926 243.818 121.86 246.162 121.793 248.507C121.314 265.503 120.835 282.498 120.355 299.493C120.335 300.545 119.908 301.549 119.163 302.293C118.419 303.037 117.415 303.465 116.362 303.485C115.305 303.476 114.294 303.053 113.547 302.306C112.8 301.559 112.377 300.549 112.368 299.493C112.634 289.933 112.904 280.374 113.178 270.815C113.417 262.171 113.66 253.527 113.907 244.883C113.987 242.035 114.067 239.186 114.147 236.335C114.269 232.045 114.39 227.755 114.509 223.465C114.525 222.863 114.546 222.267 114.562 221.666C114.573 221.139 114.589 220.617 114.605 220.09C114.839 211.76 115.073 203.429 115.307 195.095C115.403 191.816 115.496 188.536 115.584 185.254C115.691 181.512 115.797 177.772 115.904 174.033C115.952 172.389 115.994 170.749 116.042 169.105C116.062 168.052 116.49 167.049 117.234 166.304C117.979 165.56 118.983 165.133 120.036 165.113C121.092 165.121 122.103 165.545 122.85 166.291C123.597 167.038 124.021 168.049 124.029 169.105V169.105Z" fill="#3F3D56"/>
<path d="M343.105 170.213C338.917 186.063 333.912 201.687 328.11 217.02C326.509 221.25 324.871 225.471 323.12 229.641L323.522 228.688C322.741 230.674 321.743 232.568 320.546 234.336C320.465 234.45 320.382 234.563 320.297 234.675C320.711 234.146 320.79 234.041 320.533 234.361C320.398 234.521 320.264 234.682 320.125 234.838C319.752 235.255 319.352 235.646 318.927 236.01C318.82 236.102 318.711 236.191 318.601 236.279L319.101 235.891C319.043 236.027 318.636 236.209 318.509 236.286C318.099 236.534 317.671 236.75 317.229 236.935L318.183 236.532C317.458 236.824 316.702 237.031 315.93 237.15L316.991 237.007C316.233 237.112 315.464 237.121 314.703 237.032L315.764 237.175C315.142 237.089 314.533 236.925 313.951 236.686L314.905 237.089C314.595 236.954 314.296 236.794 314.011 236.612C313.867 236.518 313.423 236.182 314.004 236.625C314.607 237.086 314.081 236.665 313.957 236.542C313.853 236.44 313.76 236.329 313.659 236.225C313.189 235.744 314.189 237.054 313.87 236.491C313.7 236.209 313.543 235.918 313.403 235.62L313.805 236.573C313.622 236.119 313.492 235.646 313.417 235.162L313.56 236.223C313.484 235.622 313.483 235.013 313.558 234.411L313.416 235.472C313.513 234.8 313.691 234.143 313.945 233.513L313.543 234.467C313.72 234.044 313.93 233.635 314.17 233.244C314.281 233.041 314.411 232.85 314.558 232.673C314.584 232.682 313.883 233.478 314.255 233.076C314.352 232.971 314.443 232.86 314.542 232.756C314.7 232.589 314.869 232.436 315.035 232.278C315.591 231.749 314.256 232.792 314.898 232.373C315.363 232.067 315.853 231.801 316.362 231.575L315.408 231.978C316.261 231.628 317.155 231.388 318.068 231.264L317.006 231.407C318.15 231.275 319.306 231.289 320.446 231.448L319.385 231.305C320.829 231.524 322.24 231.921 323.587 232.487L322.633 232.084C325.503 233.316 328.045 235.144 330.582 236.937C333.032 238.711 335.615 240.296 338.306 241.678C344.095 244.555 350.327 246.44 356.742 247.253C365.94 248.379 375.275 247.178 383.889 243.76C392.502 240.343 400.12 234.817 406.041 227.691C406.764 226.925 407.18 225.921 407.211 224.868C407.203 223.811 406.784 222.799 406.041 222.046C404.576 220.701 401.808 220.322 400.393 222.046C399.053 223.682 397.611 225.233 396.077 226.691C395.361 227.37 394.625 228.028 393.871 228.665C393.44 229.029 393.004 229.386 392.561 229.736C392.351 229.901 391.699 230.342 392.701 229.631C392.471 229.794 392.251 229.972 392.024 230.139C388.671 232.61 385.037 234.676 381.198 236.294L382.152 235.892C378.033 237.619 373.706 238.804 369.281 239.417L370.343 239.274C365.791 239.873 361.18 239.866 356.63 239.254L357.691 239.397C353.142 238.772 348.693 237.561 344.456 235.793L345.41 236.195C341.32 234.387 337.44 232.14 333.835 229.494C331.96 228.105 329.982 226.861 327.918 225.771C325.514 224.544 322.911 223.753 320.23 223.435C315.204 222.844 310.083 224.801 307.32 229.141C304.777 233.136 304.81 238.852 308.371 242.248C312.038 245.746 317.592 245.717 321.914 243.529C326.077 241.421 328.577 237.043 330.336 232.914C334.292 223.624 337.796 214.118 341.06 204.565C344.289 195.113 347.217 185.565 349.845 175.922C350.17 174.727 350.491 173.532 350.807 172.335C351.34 170.318 350.135 167.907 348.018 167.424C346.997 167.162 345.914 167.306 344.997 167.826C344.081 168.346 343.402 169.202 343.105 170.213L343.105 170.213Z" fill="#3F3D56"/>
<path d="M382.952 169.105L381.514 220.091L380.084 270.813L379.276 299.493C379.285 300.549 379.709 301.559 380.456 302.306C381.203 303.053 382.213 303.476 383.269 303.485C384.322 303.465 385.326 303.038 386.071 302.293C386.815 301.549 387.243 300.545 387.263 299.493L388.701 248.506L390.13 197.785L390.939 169.105C390.93 168.049 390.506 167.038 389.759 166.292C389.012 165.545 388.002 165.122 386.945 165.113C385.893 165.133 384.889 165.56 384.144 166.304C383.399 167.049 382.972 168.052 382.952 169.105V169.105Z" fill="#3F3D56"/>
<path opacity="0.2" d="M244.722 285.258H245.962V228.816H274.89V227.579H245.962V203.764H268.302C267.975 203.347 267.638 202.936 267.291 202.53H245.962V186.8C245.552 186.626 245.138 186.457 244.722 186.298V202.53H220.413V182.376C219.996 182.395 219.586 182.424 219.173 182.459V202.53H199.78V187.493C199.364 187.678 198.953 187.872 198.546 188.075V202.53H182.244V203.764H198.546V227.579H182.244V228.816H198.546V285.258H199.78V228.816C202.327 228.815 204.849 229.316 207.202 230.29C209.555 231.264 211.693 232.692 213.494 234.492C215.295 236.292 216.723 238.43 217.698 240.782C218.672 243.134 219.173 245.655 219.173 248.201V285.258H220.413V228.816H244.722V285.258ZM199.78 227.579V203.764H219.173V227.579H199.78ZM220.413 227.579V203.764H220.9C224.028 203.764 227.126 204.38 230.016 205.577C232.907 206.774 235.533 208.528 237.745 210.74C239.957 212.951 241.712 215.577 242.909 218.466C244.106 221.355 244.722 224.452 244.722 227.579H220.413Z" fill="black"/>
<path d="M237.149 268.334C235.588 275.296 231.848 281.578 226.473 286.271C226.079 286.612 225.685 286.942 225.274 287.267C224.279 287.357 223.29 287.45 222.309 287.544C221.494 287.618 220.69 287.698 219.891 287.772L219.747 287.788L219.646 286.915L219.242 283.381C217.672 280.819 216.699 277.937 216.394 274.948C216.09 271.959 216.463 268.94 217.484 266.115C218.89 262.325 221.435 258.977 223.938 255.656C227.394 251.068 230.754 246.533 230.876 240.939C232.577 243.114 233.99 245.498 235.083 248.034C234.052 248.519 233.126 249.2 232.356 250.04C232.138 250.28 231.92 250.615 232.069 250.903C232.197 251.148 232.516 251.206 232.793 251.238C233.459 251.307 234.13 251.376 234.795 251.446C235.328 251.504 235.86 251.557 236.393 251.616C237.037 253.729 237.474 255.901 237.697 258.099C238.056 261.518 237.871 264.973 237.149 268.334V268.334Z" fill="#3F3D56"/>
<path d="M254.827 254.384C251.685 256.667 249.848 259.951 248.421 263.571C246.959 264.038 245.643 264.878 244.603 266.008C244.385 266.248 244.167 266.583 244.316 266.871C244.444 267.115 244.763 267.174 245.04 267.206C245.706 267.275 246.377 267.344 247.042 267.413C245.615 271.693 244.305 276.121 241.781 279.735C240.103 282.121 237.915 284.105 235.376 285.542C234.683 285.937 233.969 286.29 233.235 286.601C230.53 286.809 227.877 287.031 225.275 287.267C224.279 287.357 223.29 287.45 222.309 287.544C221.494 287.618 220.69 287.698 219.891 287.772C219.886 287.48 219.886 287.187 219.891 286.894C220.06 279.096 222.93 271.598 228.011 265.678C228.251 265.401 228.496 265.13 228.746 264.859C231.321 262.11 234.348 259.823 237.697 258.099C242.974 255.356 248.888 254.074 254.827 254.384V254.384Z" fill="#F26335"/>
<path d="M223.229 284.813L222.617 286.623L222.308 287.544C221.494 287.618 220.689 287.698 219.891 287.772L219.747 287.788C218.863 287.879 217.985 287.969 217.106 288.06C216.877 287.794 216.648 287.522 216.424 287.245C210.866 280.518 208.199 271.865 209.004 263.177C209.809 254.489 214.022 246.473 220.721 240.88C220.019 244.558 220.839 248.082 222.186 251.579C222.042 251.637 221.904 251.696 221.77 251.76C220.74 252.245 219.814 252.926 219.044 253.766C218.826 254.006 218.608 254.341 218.757 254.629C218.884 254.873 219.204 254.932 219.481 254.964C220.146 255.033 220.817 255.102 221.483 255.171C222.015 255.23 222.548 255.283 223.08 255.342C223.331 255.368 223.581 255.395 223.831 255.422C223.868 255.501 223.9 255.576 223.938 255.656C225.455 258.945 227.09 262.25 228.011 265.678C228.242 266.538 228.423 267.411 228.554 268.292C228.964 271.268 228.698 274.299 227.777 277.159C226.855 280.019 225.301 282.635 223.229 284.813V284.813Z" fill="#F26335"/>
<path d="M276.828 207.614C272.244 198.676 265.142 191.156 256.789 185.63C248.41 180.111 238.795 176.75 228.801 175.847C227.491 175.728 226.178 175.658 224.861 175.638C223.306 175.615 199.906 182.361 192.067 187.87C184.233 193.312 177.788 200.519 173.253 208.909C168.726 217.345 166.5 226.823 166.797 236.392C167.185 246.018 169.869 255.411 174.626 263.79C179.317 272.142 185.979 279.221 194.031 284.413C202.198 289.622 210.402 303.434 220.045 303.921C229.761 304.413 240.841 291.384 249.702 287.428C258.563 283.439 266.223 277.199 271.919 269.328C277.455 261.616 281.036 252.676 282.355 243.275C283.726 233.651 283.087 223.724 279.799 214.525C278.955 212.161 277.963 209.853 276.828 207.614C275.88 205.749 273.102 205.062 271.364 206.182C270.468 206.733 269.819 207.609 269.552 208.626C269.285 209.643 269.421 210.724 269.931 211.644C270.487 212.739 271.005 213.853 271.483 214.985L271.081 214.032C272.891 218.383 274.122 222.953 274.742 227.625L274.6 226.563C275.259 231.632 275.247 236.765 274.564 241.83L274.707 240.769C274.017 245.833 272.664 250.786 270.684 255.499L271.087 254.545C270.068 256.95 268.881 259.279 267.534 261.517C266.852 262.647 266.128 263.751 265.362 264.828C265.025 265.301 264.679 265.766 264.329 266.229C263.873 266.833 264.951 265.439 264.479 266.032C264.399 266.133 264.319 266.234 264.239 266.335C263.997 266.637 263.752 266.937 263.503 267.233C261.843 269.213 260.031 271.061 258.084 272.76C257.599 273.183 257.106 273.597 256.605 274.001C256.356 274.202 256.109 274.412 255.849 274.6C255.859 274.592 256.69 273.961 256.198 274.328C256.043 274.443 255.89 274.56 255.735 274.675C254.702 275.439 253.641 276.165 252.554 276.853C250.049 278.43 247.422 279.803 244.697 280.958L245.65 280.556C240.95 282.534 236.009 283.885 230.956 284.575L232.018 284.432C226.967 285.115 221.848 285.124 216.795 284.459L217.856 284.602C213.264 283.985 208.771 282.771 204.494 280.991L205.447 281.393C202.97 280.347 200.581 279.103 198.304 277.672C197.177 276.962 196.079 276.209 195.011 275.411C194.859 275.298 194.708 275.182 194.556 275.068C194.068 274.7 194.906 275.339 194.913 275.343C194.629 275.14 194.357 274.923 194.095 274.692C193.579 274.272 193.072 273.842 192.572 273.403C190.572 271.642 188.704 269.737 186.984 267.702C186.554 267.194 186.132 266.677 185.72 266.153C185.542 265.926 185.216 265.466 185.936 266.435C185.841 266.307 185.743 266.182 185.647 266.056C185.418 265.751 185.191 265.445 184.968 265.136C184.186 264.054 183.443 262.946 182.738 261.811C181.146 259.243 179.756 256.554 178.582 253.77L178.984 254.723C177.063 250.153 175.749 245.351 175.076 240.439L175.218 241.5C174.611 236.973 174.603 232.385 175.193 227.855L175.05 228.917C175.655 224.53 176.835 220.242 178.561 216.164L178.159 217.118C179.245 214.565 180.526 212.099 181.99 209.743C182.723 208.563 183.5 207.413 184.321 206.291C184.508 206.036 184.696 205.783 184.887 205.531C185.059 205.303 185.534 204.736 184.724 205.738C184.804 205.64 184.88 205.539 184.958 205.439C185.409 204.869 185.87 204.308 186.342 203.755C188.13 201.663 190.067 199.702 192.137 197.889C192.661 197.431 193.192 196.982 193.732 196.543C193.977 196.343 194.224 196.146 194.473 195.951C194.572 195.872 194.673 195.796 194.772 195.717C193.708 196.563 194.476 195.947 194.718 195.767C195.83 194.933 196.972 194.142 198.144 193.392C200.75 191.726 203.49 190.283 206.337 189.076L205.383 189.479C209.515 187.745 227.822 183.651 231.152 184.098L230.09 183.955C234.984 184.638 239.768 185.959 244.318 187.885L243.364 187.482C245.67 188.461 247.911 189.586 250.073 190.851C251.154 191.484 252.213 192.152 253.251 192.854C253.742 193.186 254.228 193.526 254.709 193.873C254.949 194.046 255.188 194.222 255.426 194.399C255.558 194.498 255.689 194.597 255.821 194.696C256.374 195.111 255.058 194.096 255.638 194.554C257.58 196.079 259.424 197.724 261.159 199.479C262.011 200.347 262.834 201.242 263.628 202.165C264.035 202.638 264.434 203.119 264.824 203.606C265.018 203.848 265.679 204.724 264.869 203.651C265.067 203.913 265.267 204.174 265.463 204.438C267.145 206.715 268.64 209.125 269.931 211.644C270.886 213.506 273.651 214.2 275.395 213.076C276.291 212.525 276.94 211.65 277.207 210.632C277.474 209.615 277.338 208.534 276.828 207.614Z" fill="#3F3D56"/>
<path d="M230.295 272.76C229.882 272.779 229.474 272.671 229.126 272.45C228.777 272.23 228.504 271.907 228.345 271.527C228.186 271.146 228.148 270.726 228.236 270.323C228.323 269.92 228.533 269.553 228.836 269.273C228.887 269.072 228.923 268.927 228.974 268.725C228.956 268.681 228.937 268.638 228.919 268.594C227.066 264.177 215.242 276.489 214.731 280.64C214.506 282.474 214.601 284.334 215.012 286.137C211.182 277.786 209.193 268.709 209.18 259.522C209.18 257.217 209.308 254.913 209.564 252.622C209.776 250.744 210.07 248.879 210.446 247.028C212.499 236.982 216.906 227.567 223.306 219.554C226.967 219.759 230.174 219.201 230.484 212.111C230.539 210.849 231.475 209.757 231.681 208.515C231.332 208.56 230.977 208.589 230.627 208.612C230.518 208.618 230.404 208.623 230.295 208.629L230.254 208.631C229.87 208.648 229.489 208.554 229.157 208.36C228.826 208.166 228.557 207.88 228.384 207.537C228.211 207.194 228.141 206.808 228.182 206.426C228.223 206.044 228.374 205.682 228.616 205.384C228.767 205.198 228.918 205.012 229.069 204.827C229.298 204.541 229.533 204.26 229.762 203.974C229.789 203.947 229.814 203.918 229.837 203.888C230.1 203.562 230.364 203.241 230.627 202.914C230.146 202.168 229.499 201.543 228.737 201.088C226.096 199.542 222.453 200.613 220.545 203C218.632 205.388 218.271 208.738 218.936 211.721C219.589 214.26 220.67 216.668 222.132 218.844C221.989 219.028 221.84 219.205 221.697 219.388C219.079 222.753 216.797 226.366 214.885 230.176C215.426 225.951 208.808 210.691 206.249 207.459C203.175 203.577 196.871 205.271 196.33 210.193C196.325 210.24 196.32 210.288 196.315 210.335C196.695 210.55 197.067 210.777 197.431 211.018C197.888 211.323 198.243 211.76 198.448 212.27C198.653 212.78 198.699 213.341 198.58 213.877C198.461 214.414 198.182 214.903 197.781 215.278C197.379 215.654 196.874 215.9 196.33 215.984L196.274 215.993C191.186 223.255 207.498 242.156 211.581 237.912C209.659 243.356 208.453 249.026 207.995 254.781C207.735 258.176 207.75 261.586 208.04 264.979L208.023 264.859C207.116 257.47 191.553 246.484 187.008 247.399C184.39 247.926 181.812 247.806 182.209 250.446C182.216 250.488 182.222 250.53 182.229 250.572C182.934 250.859 183.621 251.19 184.285 251.563C184.665 251.777 185.037 252.005 185.401 252.245C185.859 252.551 186.213 252.987 186.418 253.498C186.623 254.008 186.669 254.568 186.55 255.105C186.431 255.642 186.153 256.13 185.751 256.506C185.35 256.882 184.844 257.128 184.301 257.212L184.245 257.22C184.205 257.226 184.17 257.232 184.13 257.237C181.814 265.203 198.99 278.059 209.432 273.969H209.438C210.473 278.464 211.972 282.839 213.912 287.024H229.894C229.951 286.847 230.003 286.663 230.054 286.486C228.575 286.579 227.09 286.49 225.632 286.223C226.818 284.768 228.004 283.302 229.189 281.848C229.216 281.821 229.241 281.792 229.264 281.762C229.865 281.018 230.473 280.279 231.074 279.535L231.074 279.534C231.106 277.252 230.845 274.976 230.295 272.761L230.295 272.76ZM211.993 236.773L212.001 236.761L211.993 236.784V236.773ZM208.453 268.672L208.315 268.363C208.321 268.14 208.321 267.916 208.315 267.687C208.315 267.624 208.304 267.561 208.304 267.498C208.355 267.894 208.401 268.289 208.459 268.684L208.453 268.672Z" fill="#3F3D56"/>
<path d="M50.7176 239.518C53.9525 239.518 56.5748 236.896 56.5748 233.663C56.5748 230.429 53.9525 227.808 50.7176 227.808C47.4827 227.808 44.8604 230.429 44.8604 233.663C44.8604 236.896 47.4827 239.518 50.7176 239.518Z" fill="#3F3D56"/>
<path d="M121.005 303.389C124.24 303.389 126.862 300.768 126.862 297.534C126.862 294.301 124.24 291.679 121.005 291.679C117.77 291.679 115.147 294.301 115.147 297.534C115.147 300.768 117.77 303.389 121.005 303.389Z" fill="#3F3D56"/>
<path d="M387.776 303.389C391.011 303.389 393.633 300.768 393.633 297.534C393.633 294.301 391.011 291.679 387.776 291.679C384.541 291.679 381.918 294.301 381.918 297.534C381.918 300.768 384.541 303.389 387.776 303.389Z" fill="#3F3D56"/>
<path d="M402.153 228.872C405.387 228.872 408.01 226.251 408.01 223.017C408.01 219.784 405.387 217.163 402.153 217.163C398.918 217.163 396.295 219.784 396.295 223.017C396.295 226.251 398.918 228.872 402.153 228.872Z" fill="#3F3D56"/>
<path d="M385.113 174.582C388.348 174.582 390.97 171.96 390.97 168.727C390.97 165.493 388.348 162.872 385.113 162.872C381.878 162.872 379.256 165.493 379.256 168.727C379.256 171.96 381.878 174.582 385.113 174.582Z" fill="#3F3D56"/>
<path d="M140.707 223.017C140.703 224.513 140.124 225.95 139.091 227.031C138.057 228.112 136.647 228.754 135.152 228.825C133.658 228.896 132.193 228.389 131.062 227.411C129.93 226.432 129.219 225.056 129.074 223.568C128.929 222.079 129.362 220.592 130.284 219.414C131.206 218.236 132.545 217.457 134.025 217.239C135.505 217.02 137.013 217.379 138.236 218.241C139.458 219.102 140.303 220.401 140.595 221.868C140.67 222.246 140.707 222.631 140.707 223.017V223.017Z" fill="#3F3D56"/>
<path d="M257.851 191.614C261.086 191.614 263.709 188.993 263.709 185.759C263.709 182.526 261.086 179.904 257.851 179.904C254.617 179.904 251.994 182.526 251.994 185.759C251.994 188.993 254.617 191.614 257.851 191.614Z" fill="#3F3D56"/>
<path d="M199.811 185.759C199.808 187.255 199.229 188.692 198.195 189.773C197.161 190.854 195.751 191.496 194.257 191.567C192.762 191.637 191.298 191.131 190.166 190.152C189.035 189.174 188.323 187.798 188.178 186.309C188.033 184.821 188.467 183.334 189.388 182.156C190.31 180.977 191.65 180.199 193.13 179.98C194.61 179.762 196.117 180.121 197.34 180.982C198.563 181.844 199.408 183.143 199.699 184.609C199.774 184.988 199.812 185.373 199.811 185.759V185.759Z" fill="#3F3D56"/>
<path d="M124.2 168.727C124.196 170.222 123.618 171.659 122.584 172.74C121.55 173.821 120.14 174.464 118.645 174.534C117.151 174.605 115.686 174.099 114.555 173.12C113.423 172.142 112.712 170.766 112.567 169.277C112.422 167.789 112.855 166.301 113.777 165.123C114.699 163.945 116.038 163.166 117.518 162.948C118.998 162.729 120.506 163.088 121.729 163.95C122.952 164.812 123.796 166.11 124.088 167.577C124.163 167.956 124.2 168.341 124.2 168.727V168.727Z" fill="#3F3D56"/>
<path d="M319.086 241.647C322.321 241.647 324.943 239.025 324.943 235.792C324.943 232.558 322.321 229.937 319.086 229.937C315.851 229.937 313.229 232.558 313.229 235.792C313.229 239.025 315.851 241.647 319.086 241.647Z" fill="#3F3D56"/>
<path d="M226.967 188.421C231.673 188.421 235.487 184.608 235.487 179.904C235.487 175.201 231.673 171.388 226.967 171.388C222.262 171.388 218.448 175.201 218.448 179.904C218.448 184.608 222.262 188.421 226.967 188.421Z" fill="#3F3D56"/>
<path d="M457.366 303.836L0.634006 304C0.550747 304 0.4683 303.984 0.391379 303.952C0.314457 303.92 0.244569 303.873 0.185696 303.814C0.126823 303.755 0.0801161 303.686 0.0482541 303.609C0.0163921 303.532 0 303.449 0 303.366C0 303.283 0.0163921 303.201 0.0482541 303.124C0.0801161 303.047 0.126823 302.977 0.185696 302.918C0.244569 302.859 0.314457 302.813 0.391379 302.781C0.4683 302.749 0.550747 302.732 0.634006 302.732L457.366 302.569C457.534 302.569 457.695 302.636 457.813 302.755C457.932 302.874 457.998 303.035 457.998 303.203C457.998 303.37 457.932 303.531 457.813 303.65C457.695 303.769 457.534 303.836 457.366 303.836V303.836Z" fill="#CACACA"/>
</svg>
