<svg width="332" height="226" viewBox="0 0 332 226" fill="none" xmlns="http://www.w3.org/2000/svg">
<g clip-path="url(#clip0_57_53)">
<path d="M201.781 126.704C202.347 126.704 202.89 126.929 203.291 127.329C203.691 127.73 203.916 128.273 203.916 128.84V149.504H244.875C245.441 149.504 245.984 149.729 246.384 150.129C246.785 150.53 247.01 151.073 247.01 151.64C247.01 152.206 246.785 152.75 246.384 153.15C245.984 153.551 245.441 153.776 244.875 153.776H203.916V225.238H199.645V128.84C199.645 128.273 199.87 127.73 200.271 127.329C200.671 126.929 201.214 126.704 201.781 126.704Z" fill="#E6E6E6"/>
<path d="M87.7977 224.752L80.0982 224.965C78.9287 225.025 77.7716 224.701 76.8038 224.041C75.9676 223.419 75.5841 222.578 75.7522 221.733L77.2674 214.116C77.5529 212.679 79.3132 211.593 81.4525 211.533L85.7046 211.416C87.8439 211.357 89.6614 212.344 90.0258 213.763L91.9588 221.285C92.1733 222.12 91.8367 222.981 91.0362 223.648C90.1062 224.36 88.9688 224.748 87.7977 224.752Z" fill="#3F3D56"/>
<path d="M134.63 224.535L126.931 224.747C125.761 224.807 124.604 224.483 123.636 223.823C122.8 223.201 122.417 222.36 122.585 221.515L124.1 213.898C124.386 212.461 126.146 211.375 128.285 211.316L132.537 211.198C134.677 211.139 136.494 212.127 136.859 213.546L138.792 221.068C139.006 221.902 138.669 222.763 137.869 223.43C136.939 224.142 135.802 224.53 134.63 224.535Z" fill="#3F3D56"/>
<path d="M61.062 159.868C60.7103 159.716 60.4208 159.449 60.2415 159.11C60.0622 158.772 60.0038 158.382 60.0761 158.006C60.1483 157.629 60.3468 157.289 60.6386 157.041C60.9305 156.793 61.2984 156.652 61.6812 156.641L149.215 154.223C149.436 154.217 149.656 154.255 149.862 154.333C150.068 154.412 150.257 154.531 150.417 154.683C150.578 154.834 150.707 155.016 150.797 155.218C150.887 155.42 150.936 155.637 150.942 155.858V155.858C150.954 156.304 150.789 156.736 150.482 157.06C150.176 157.384 149.754 157.573 149.308 157.586L149.308 157.585L61.7741 160.003C61.5297 160.011 61.2866 159.965 61.062 159.868Z" fill="#3F3D56"/>
<path d="M93.3667 130.879L68.3453 131.57L70.6781 216.08L95.6994 215.389L93.3667 130.879Z" fill="#E6E6E6"/>
<path d="M94.0013 129.361L89.1915 142.468L89.1957 202.185L95.0565 203.866L94.0013 129.361Z" fill="#CCCCCC"/>
<path d="M80.7255 108.793C76.0444 108.926 72.4729 117.03 72.5588 120.193L72.7168 125.918L89.6667 125.45L89.5087 119.725C89.4199 116.562 85.4068 108.668 80.7255 108.793Z" fill="#3F3D56"/>
<path d="M68.6699 166.568C67.7953 166.591 66.9472 166.266 66.3117 165.665C65.6763 165.063 65.3052 164.234 65.2801 163.359L65.0229 154.042C64.9987 153.166 65.3231 152.317 65.9246 151.682C66.5262 151.046 67.3556 150.675 68.2305 150.651C69.1054 150.626 69.954 150.951 70.5897 151.553C71.2254 152.154 71.5961 152.984 71.6203 153.859L71.8775 163.177C71.9007 164.052 71.5759 164.9 70.9746 165.536C70.3733 166.172 69.5444 166.543 68.6699 166.568Z" fill="#3F3D56"/>
<path d="M75.0194 131.771L74.901 125.613L76.5153 125.573L76.6337 131.711L78.0969 221.172L76.4823 221.217" fill="#3F3D56"/>
<path d="M96.2357 146.17L67.2197 146.972C64.4483 143.591 64.1966 129.187 69.9804 126.446L72.2486 122.593L89.7356 121.739L91.7793 125.796C94.6564 128.245 96.1399 142.559 96.2357 146.17Z" fill="#E6E6E6"/>
<path d="M85.3145 139.262L77.9769 139.465C76.5609 139.504 75.3571 137.666 75.2937 135.369C75.2303 133.071 76.3309 131.17 77.7469 131.131L85.0845 130.928C86.5004 130.889 87.7043 132.727 87.7677 135.024C87.8311 137.322 86.7305 139.223 85.3145 139.262Z" fill="#F26335"/>
<path d="M71.1053 180.817L55.9801 191.505L53.3378 215.604L70.9822 209.706L71.1053 180.817Z" fill="#E6E6E6"/>
<path d="M141.667 129.844L116.646 130.535L118.978 215.045L144 214.354L141.667 129.844Z" fill="#E6E6E6"/>
<path d="M117.245 129.643L122.393 142.621L123.938 202.318L118.123 204.151L117.245 129.643Z" fill="#CCCCCC"/>
<path d="M154.18 106.381C155.991 106.381 157.459 104.411 157.459 101.982C157.459 99.5521 155.991 97.5825 154.18 97.5825C152.369 97.5825 150.9 99.5521 150.9 101.982C150.9 104.411 152.369 106.381 154.18 106.381Z" fill="#E6E6E6"/>
<path d="M128.537 107.772C123.856 107.905 120.285 116.009 120.371 119.171L120.529 124.897L137.479 124.429L137.321 118.703C137.232 115.541 133.219 107.646 128.537 107.772Z" fill="#3F3D56"/>
<path d="M133.384 133.698L133.266 127.54L134.88 127.5L134.998 133.638L136.462 223.1L134.847 223.144" fill="#3F3D56"/>
<path d="M144.048 145.149L115.032 145.95C114.526 142.891 115.18 128.616 117.792 125.424L120.06 121.571L137.548 120.717L139.591 124.774C144.754 125.195 146.56 139.223 144.048 145.149Z" fill="#E6E6E6"/>
<path d="M133.162 139.526L125.824 139.729C124.408 139.768 123.197 137.642 123.123 134.99C123.05 132.338 124.143 130.149 125.559 130.11L132.896 129.907C134.312 129.868 135.524 131.994 135.597 134.646C135.67 137.298 134.578 139.487 133.162 139.526Z" fill="#F26335"/>
<path d="M142.903 174.639L157.525 186.006L159.065 210.201L141.708 203.504L142.903 174.639Z" fill="#E6E6E6"/>
<path d="M138.82 62.5758C123.13 62.5758 105.099 45.1585 89.1458 53.4339C40.8438 78.4896 47.4928 36.5628 33.616 20.9698L34.0716 20.0557C44.577 60.1434 54.0823 124.022 89.3555 52.3706C98.1914 34.4222 127.191 62.1655 144.261 61.3471L144.29 62.4458C142.488 62.5328 140.664 62.5761 138.82 62.5758Z" fill="#F2F2F2"/>
<path d="M176.477 65.0405C163.97 74.5168 139.084 71.5231 131.361 87.7555C107.979 136.903 87.9749 99.4645 67.5019 95.4158L67.3134 94.4119C87.8082 96.1124 109.792 93.4739 130.887 86.7812C149.951 80.7337 166.959 71.7372 180.073 60.7747L180.76 61.6327C179.375 62.7909 177.948 63.9268 176.477 65.0405Z" fill="#F2F2F2"/>
<path d="M40.4275 62.8828C42.2387 62.8828 43.707 60.9131 43.707 58.4834C43.707 56.0537 42.2387 54.0841 40.4275 54.0841C38.6163 54.0841 37.1479 56.0537 37.1479 58.4834C37.1479 60.9131 38.6163 62.8828 40.4275 62.8828Z" fill="#E6E6E6"/>
<path d="M142.145 27.1519C143.956 27.1519 145.424 25.1823 145.424 22.7526C145.424 20.3229 143.956 18.3533 142.145 18.3533C140.333 18.3533 138.865 20.3229 138.865 22.7526C138.865 25.1823 140.333 27.1519 142.145 27.1519Z" fill="#E6E6E6"/>
<path d="M70.4528 80.6387C68.9535 81.638 67.4189 79.2594 68.9471 78.3044C70.4464 77.3051 71.981 79.6837 70.4528 80.6387Z" fill="#E6E6E6"/>
<path d="M125.97 2.57463C124.471 3.574 122.936 1.19541 124.464 0.240408C125.964 -0.758909 127.498 1.61969 125.97 2.57463Z" fill="#E6E6E6"/>
<path d="M158.69 48.8584L157.736 48.6491L157.945 47.6944L157.309 47.555L157.1 48.5096L156.146 48.3007L156.006 48.9368L156.96 49.1462L156.751 50.1004L157.387 50.2399L157.597 49.2852L158.55 49.4946L158.69 48.8584Z" fill="#E6E6E6"/>
<path d="M71.2543 16.871C73.549 16.871 75.4093 15.01 75.4093 12.7144C75.4093 10.4188 73.549 8.55785 71.2543 8.55785C68.9596 8.55785 67.0993 10.4188 67.0993 12.7144C67.0993 15.01 68.9596 16.871 71.2543 16.871Z" fill="#FF6584"/>
<path d="M101.645 7.45316C96.9644 7.58616 93.3929 15.6903 93.4788 18.8528L93.6368 24.5781L110.587 24.1099L110.429 18.3846C110.34 15.2222 106.327 7.32754 101.645 7.45316Z" fill="#3F3D56"/>
<path d="M111.738 224.253L104.039 224.466C102.869 224.526 101.712 224.202 100.744 223.542C99.9083 222.92 99.5247 222.079 99.6929 221.234L101.208 213.617C101.494 212.18 103.254 211.093 105.393 211.034L109.645 210.917C111.785 210.858 113.602 211.845 113.966 213.264L115.899 220.786C116.114 221.62 115.777 222.481 114.977 223.149C114.047 223.861 112.909 224.249 111.738 224.253Z" fill="#3F3D56"/>
<path d="M115.172 43.9008L90.1505 44.5919L94.8659 215.419L119.887 214.728L115.172 43.9008Z" fill="#E6E6E6"/>
<path d="M105.16 126.592L105.041 120.434L106.656 120.394L106.774 126.532L108.237 215.993L106.623 216.038" fill="#3F3D56"/>
<path d="M120.098 59.5351L86.1953 60.4717C85.6042 56.8972 86.3688 40.2177 89.4209 36.4884L90.2573 32.0368L113.666 31.3902L114.891 35.7288C118.253 38.5903 119.986 55.3151 120.098 59.5351Z" fill="#E6E6E6"/>
<path d="M114.406 31.9155L90.2495 32.5828C89.3578 32.6074 88.6216 32.1391 88.605 31.5367C88.6028 31.45 88.6155 31.3634 88.6425 31.281L92.3948 19.7169C92.5554 19.2218 93.195 18.8581 93.9415 18.8375L109.962 18.395C110.708 18.3743 111.367 18.7021 111.555 19.1877L115.939 30.527C116.163 31.1069 115.646 31.7104 114.782 31.875C114.658 31.8985 114.533 31.912 114.406 31.9155Z" fill="#E6E6E6"/>
<path d="M92.6324 125.806C92.4144 125.713 92.2083 125.593 92.0187 125.451C91.7469 125.26 91.5224 125.01 91.3623 124.719C91.2022 124.428 91.1108 124.104 91.095 123.772L90.2173 91.9728C90.1812 90.6564 91.4695 89.5491 93.0893 89.5043L114.715 88.9068C116.335 88.8617 117.682 89.8967 117.719 91.2131L118.597 123.013C118.599 123.345 118.526 123.673 118.382 123.972C118.238 124.272 118.028 124.534 117.767 124.739C117.189 125.21 116.469 125.471 115.724 125.481L94.0989 126.078C93.5961 126.095 93.0957 126.002 92.6324 125.806Z" fill="#3F3D56"/>
<path d="M106.474 29.869L99.1363 30.0717C97.7203 30.1108 96.523 28.5104 96.4677 26.5047C96.4123 24.499 97.5195 22.835 98.9355 22.7959L106.273 22.5932C107.689 22.5541 108.886 24.1544 108.942 26.1601C108.997 28.1658 107.89 29.8298 106.474 29.869Z" fill="#F26335"/>
<path d="M279.919 218.474H271.378V156.381C278.523 155.868 283.892 153.68 283.892 151.057C283.892 148.054 276.852 145.62 268.169 145.62C259.485 145.62 252.445 148.054 252.445 151.057C252.445 153.705 257.919 155.91 265.166 156.394V218.474H256.625C255.802 218.474 255.012 218.801 254.429 219.384C253.847 219.967 253.519 220.757 253.519 221.581C253.519 222.405 253.847 223.195 254.429 223.778C255.012 224.361 255.802 224.688 256.625 224.688H279.919C280.743 224.688 281.533 224.361 282.115 223.778C282.698 223.195 283.025 222.405 283.025 221.581C283.025 220.757 282.698 219.967 282.115 219.384C281.533 218.801 280.743 218.474 279.919 218.474Z" fill="#E6E6E6"/>
<path d="M262.774 186.951L259.969 190.009L246.841 180.639L250.981 176.125L262.774 186.951Z" fill="#A0616A"/>
<path d="M255.6 195.023C255.628 195.707 255.791 196.379 256.08 197C256.369 197.62 256.778 198.177 257.284 198.638L257.407 198.753L261.087 194.742L266.452 188.891L262.491 185.254L261.776 186.035L261.701 186.116L258.137 187.802L257.381 188.162L257.252 188.222L256.968 191.276V191.279C256.503 191.781 256.143 192.371 255.908 193.014C255.673 193.657 255.569 194.34 255.6 195.023Z" fill="#2F2E41"/>
<path d="M277.31 217.462L273.339 218.669L266.798 203.923L272.658 202.142L277.31 217.462Z" fill="#A0616A"/>
<path d="M266.639 224.732L266.688 224.896L279.49 221.005L277.927 215.859L276.916 216.166L276.81 216.198L272.05 215.761L271.91 215.75L270.109 218.235C268.787 218.637 267.68 219.547 267.029 220.765C266.378 221.983 266.238 223.41 266.639 224.732H266.639Z" fill="#2F2E41"/>
<path d="M244.57 140.254C244.57 140.254 219.221 164.738 235.246 172.317H240.199C241.276 168.816 242.931 165.52 245.095 162.566C245.563 161.953 247.317 162.078 247.803 161.481C250.776 157.835 253.999 154.704 256.225 154.828L255.692 171.745L254.831 177.78C254.378 180.899 267.148 208.136 267.148 208.136L275.174 204.98C275.174 204.98 266.812 182.547 266.714 179.313L273.415 143.752L244.57 140.254Z" fill="#2F2E41"/>
<path d="M242.456 141.462C242.585 141.646 242.754 141.799 242.95 141.91C243.273 142.093 243.623 142.223 243.987 142.295C249.695 143.591 268.339 146.278 273.179 144.996C273.774 144.841 274.162 144.623 274.288 144.335C274.693 143.427 274.641 139.591 274.403 134.959C274.36 134.091 273.403 133.152 273.346 132.244C273.306 131.563 274.165 130.922 274.119 130.229C273.803 125.546 273.395 120.773 273.122 117.756C272.95 115.816 272.832 114.604 272.832 114.604L275.776 96.0322L275.638 95.8052L275.483 95.7277L265.99 91.0266L265.473 89.7048C265.323 89.3243 265.062 88.9973 264.725 88.7663C264.388 88.5353 263.989 88.4108 263.58 88.4089L257.327 88.3831C257.002 88.3813 256.682 88.457 256.393 88.6039C256.103 88.7509 255.853 88.9648 255.663 89.2278L253.969 91.5755L242.766 98.7592L242.809 98.8913L248.066 114.894L248.092 116.141V116.144L248.287 126.172L247.744 127.531L248.356 129.761C248.356 129.761 248.075 132.367 246.567 134.304C245.199 136.063 243.459 137.896 242.672 139.384V139.387C242.235 140.209 242.088 140.922 242.456 141.462Z" fill="#F26335"/>
<path d="M234.029 170.863L235.384 172.575C235.384 172.575 247.845 181.297 248.273 182.112L250.243 183.976L255.008 178.881L252.53 175.773C250.547 173.287 247.984 171.324 245.068 170.058L241.27 166.687L234.029 170.863Z" fill="#2F2E41"/>
<path d="M278.916 147.246L276.647 125.273L276.048 116.229L282.4 115.08C282.4 115.08 282.148 121.547 282.98 125.195C283.801 128.795 283.089 146.764 283.038 147.244C283.505 147.662 283.834 148.211 283.981 148.819C284.129 149.427 284.089 150.066 283.865 150.651C283.642 151.236 283.247 151.739 282.732 152.094C282.216 152.45 281.606 152.64 280.98 152.64C280.354 152.64 279.743 152.451 279.227 152.096C278.712 151.741 278.316 151.238 278.092 150.654C277.869 150.069 277.828 149.43 277.975 148.822C278.122 148.213 278.45 147.664 278.916 147.246V147.246Z" fill="#A0616A"/>
<path d="M271.353 113.968L273.122 117.756L273.74 119.075L275.403 127.787L276.233 128.669L276.948 131.517L277.284 131.448L283.345 130.192L285.111 129.827C285.509 129.164 285.666 128.383 285.555 127.617C285.444 126.851 285.072 126.147 284.502 125.623C284.382 125.514 284.281 125.408 284.284 125.307C284.385 119.247 284.014 108.181 280.668 103.627C279.605 102.181 278.967 100.742 278.039 99.7361C278.037 99.7333 278.037 99.7304 278.034 99.7304L275.776 96.0323L275.638 95.8052L275.483 95.7277L271.353 113.968Z" fill="#F26335"/>
<path d="M260.942 86.8265C265.537 86.8265 269.262 83.1001 269.262 78.5033C269.262 73.9065 265.537 70.1801 260.942 70.1801C256.347 70.1801 252.622 73.9065 252.622 78.5033C252.622 83.1001 256.347 86.8265 260.942 86.8265Z" fill="#A0616A"/>
<path d="M270.822 76.7125C271.065 75.3137 271.255 73.5005 270.557 71.8886C269.967 70.5321 268.492 69.2602 266.852 69.4318C266.929 69.1256 266.921 68.8038 266.827 68.5022C266.733 68.2006 266.557 67.931 266.319 67.7233C265.785 67.3039 265.162 67.0111 264.499 66.8673C262.957 66.4139 261.36 65.944 259.711 65.9353C257.861 65.9252 256.221 66.5594 255.215 67.6776L255.191 67.7138L254.889 68.4337C254.849 68.5303 254.788 68.617 254.711 68.6879C254.634 68.7587 254.543 68.8121 254.443 68.8443C254.344 68.8772 254.238 68.8877 254.133 68.8749C254.029 68.8621 253.929 68.8265 253.84 68.7705C253.743 68.7104 253.631 68.6769 253.517 68.6732C253.402 68.6695 253.289 68.6957 253.188 68.7493C253.087 68.8029 253.001 68.8819 252.94 68.9787C252.878 69.0754 252.843 69.1865 252.838 69.3009L252.822 69.6081L252.39 69.4359C252.282 69.3922 252.164 69.3781 252.049 69.3952C251.933 69.4123 251.824 69.4599 251.733 69.5332C251.642 69.6064 251.573 69.7027 251.531 69.8119C251.49 69.9212 251.478 70.0395 251.498 70.1546L251.556 70.5201C251.463 70.5032 251.367 70.5053 251.275 70.526C251.183 70.5468 251.096 70.5858 251.02 70.6409C250.91 70.7216 250.829 70.835 250.788 70.9648C250.747 71.0946 250.748 71.2342 250.791 71.3633C251.126 72.3193 251.698 73.1745 252.454 73.8487C252.793 74.1555 253.173 74.4139 253.583 74.6167C253.669 74.6597 253.757 74.7004 253.849 74.7389C257.165 76.1611 260.712 76.965 264.317 77.111C263.976 77.7615 263.756 78.4684 263.667 79.1974C263.618 79.6111 263.683 80.0304 263.855 80.4098C264.027 80.7892 264.3 81.1142 264.643 81.3496C264.792 81.4348 264.949 81.5065 265.111 81.5638C265.265 81.6209 265.415 81.6903 265.559 81.7714C265.769 81.8988 265.942 82.0795 266.061 82.2953C266.179 82.5111 266.238 82.7544 266.232 83.0004C266.227 83.2465 266.156 83.4866 266.028 83.6966C265.899 83.9065 265.718 84.0788 265.501 84.196C265.501 84.196 266.12 84.9523 266.22 84.9394C266.614 84.8499 266.97 84.6389 267.239 84.3362C269.041 82.586 270.246 80.0225 270.822 76.7125Z" fill="#2F2E41"/>
<path d="M307.247 205.372L307.608 197.238C311.378 195.222 315.583 194.157 319.857 194.136C313.974 198.947 314.709 208.222 310.721 214.692C309.461 216.701 307.766 218.4 305.761 219.664C303.756 220.928 301.492 221.725 299.138 221.994L294.215 225.01C293.539 221.243 293.688 217.374 294.651 213.669C295.615 209.965 297.369 206.514 299.794 203.553C301.171 201.906 302.749 200.439 304.492 199.186C305.672 202.296 307.247 205.372 307.247 205.372Z" fill="#F2F2F2"/>
<path d="M332 225.397C332 225.476 331.985 225.555 331.955 225.628C331.924 225.701 331.88 225.768 331.824 225.824C331.768 225.88 331.701 225.924 331.628 225.955C331.555 225.985 331.476 226 331.397 226H0.603012C0.443084 226 0.289704 225.936 0.176617 225.823C0.0635305 225.71 0 225.557 0 225.397C0 225.237 0.0635305 225.083 0.176617 224.97C0.289704 224.857 0.443084 224.794 0.603012 224.794H331.397C331.476 224.793 331.555 224.809 331.628 224.839C331.701 224.869 331.768 224.914 331.824 224.97C331.88 225.026 331.924 225.092 331.955 225.166C331.985 225.239 332 225.318 332 225.397Z" fill="#CCCCCC"/>
<path d="M142.287 164.504C141.412 164.527 140.564 164.202 139.928 163.601C139.293 162.999 138.922 162.17 138.897 161.295L138.64 151.978C138.617 151.103 138.941 150.255 139.543 149.62C140.144 148.985 140.973 148.615 141.847 148.591C142.721 148.567 143.569 148.89 144.205 149.491C144.841 150.092 145.212 150.921 145.237 151.795L145.494 161.113C145.517 161.988 145.193 162.836 144.591 163.472C143.99 164.108 143.161 164.479 142.287 164.504Z" fill="#3F3D56"/>
<path d="M287.818 198.558C282.805 198.558 277.311 198.368 271.335 197.989C240.427 196.026 200.39 189.199 158.602 178.767C116.813 168.336 78.2646 155.545 50.0574 142.751C36.3168 136.519 25.7711 130.62 18.7133 125.217C11.2409 119.497 7.97244 114.512 8.99818 110.399C10.9968 102.388 28.6936 100.635 43.1875 100.575L43.1925 101.74C23.2885 101.822 11.5462 104.998 10.1284 110.682C8.32239 117.921 23.0513 129.223 50.5384 141.69C78.6835 154.455 117.161 167.222 158.884 177.637C200.606 188.052 240.569 194.867 271.409 196.826C301.528 198.74 319.839 195.685 321.644 188.446C323.144 182.435 313.259 173.58 293.812 163.513L294.348 162.478C308.478 169.793 324.88 180.286 322.775 188.728C321.749 192.84 316.522 195.705 307.239 197.242C301.948 198.118 295.449 198.558 287.818 198.558Z" fill="#CCCCCC"/>
<path d="M21.7638 190.925C17.7859 190.925 15.1998 189.936 14.0552 187.97C11.798 184.094 15.5784 177.293 25.291 167.755L26.1069 168.586C17.0849 177.446 13.1622 184.122 15.0614 187.384C16.2633 189.447 19.84 190.187 25.4072 189.522C30.9339 188.862 38.258 186.894 47.1762 183.675C65.5361 177.046 88.5705 165.865 112.036 152.191C135.501 138.517 156.586 123.988 171.407 111.281C174.254 108.84 176.838 106.491 179.086 104.301C182.038 101.497 184.761 98.4607 187.23 95.2222C190.554 90.7065 191.676 87.229 190.475 85.1653C188.468 81.7187 180.036 82.0428 166.732 86.0792L166.394 84.9641C180.668 80.6341 189.108 80.5042 191.481 84.579C192.955 87.1106 191.841 90.924 188.168 95.9132C185.662 99.203 182.896 102.287 179.899 105.136C177.633 107.343 175.031 109.708 172.165 112.166C157.292 124.918 136.146 139.49 112.622 153.198C89.0979 166.906 65.9956 178.119 47.5716 184.771C38.5704 188.02 31.1597 190.008 25.5453 190.678C24.2907 190.835 23.028 190.917 21.7638 190.925Z" fill="#CCCCCC"/>
<path d="M234.338 143.087C231.46 143.03 215.998 142.586 213.463 142.695C213.319 142.193 208.513 148.355 208.396 148.393C208.318 148.475 208.261 148.575 208.23 148.684C208.199 148.793 208.195 148.908 208.218 149.019C208.241 149.13 208.291 149.234 208.363 149.321C208.434 149.409 208.526 149.478 208.631 149.522C208.913 149.694 233.839 149.233 234.141 149.293C234.272 149.291 234.399 149.252 234.509 149.181C234.618 149.109 234.705 149.008 234.76 148.89L234.927 148.516C234.944 147.878 235.153 144.614 234.965 144.056C235.011 143.951 235.031 143.837 235.021 143.723C235.012 143.609 234.975 143.499 234.913 143.403C234.851 143.306 234.765 143.227 234.665 143.172C234.565 143.117 234.452 143.088 234.338 143.087Z" fill="#E6E6E6"/>
<path opacity="0.17" d="M234.926 148.516C234.78 148.867 234.593 149.309 234.141 149.293L208.894 149.577C208.774 149.575 208.657 149.543 208.554 149.484C208.45 149.424 208.364 149.339 208.303 149.236C208.242 149.133 208.208 149.017 208.205 148.897C208.202 148.778 208.23 148.66 208.286 148.554L234.926 148.516Z" fill="black"/>
<path d="M213.58 142.62C213.309 142.15 206.559 108.738 205.995 108.459L201.387 102.819L200.975 102.509C200.402 102.195 199.028 102.407 199.152 103.282C200.235 108.475 207.198 138.05 207.351 142.66L208.189 148.534C208.204 148.634 208.24 148.73 208.294 148.815C208.348 148.901 208.42 148.974 208.504 149.03C208.588 149.085 208.683 149.123 208.783 149.14C208.882 149.157 208.984 149.153 209.082 149.128C209.322 149.103 209.552 149.014 209.748 148.873C209.944 148.731 210.099 148.541 210.199 148.321C210.262 148.114 213.896 142.74 213.58 142.62Z" fill="#E6E6E6"/>
<path opacity="0.17" d="M201.386 102.819L210.2 148.322C209.905 149.068 208.526 149.591 208.205 148.612C208.199 148.611 199.162 103.31 199.153 103.283C199.057 102.193 200.858 102.159 201.386 102.819Z" fill="black"/>
<path d="M201.652 104.68L206.128 110.922L211.152 134.794L208.817 136.832L201.652 104.68Z" fill="#F26335"/>
<path d="M231.448 146.306L232.687 146.357C232.706 145.994 232.766 145.634 232.866 145.285C233.052 144.399 233.219 143.347 232.446 143.351C231.922 143.3 231.744 143.964 231.65 144.687C231.626 145.231 231.559 145.773 231.448 146.306Z" fill="#2F2E41"/>
<path d="M224.344 144.64L225.179 144.671L225.582 144.687C225.575 144.244 225.78 143.331 225.28 143.106C225.2 143.072 225.114 143.054 225.027 143.055C224.557 143.028 224.418 143.386 224.375 143.797C224.348 144.046 224.359 144.31 224.352 144.516C224.352 144.558 224.348 144.601 224.344 144.64Z" fill="#2F2E41"/>
<path d="M221.871 144.539L222.709 144.574L223.109 144.59C223.102 144.081 223.369 142.97 222.554 142.954C221.801 142.912 221.898 143.871 221.879 144.415C221.879 144.457 221.875 144.5 221.871 144.539Z" fill="#2F2E41"/>
<path d="M219.398 144.442L220.232 144.473L220.636 144.489C220.628 143.984 220.896 142.873 220.081 142.857C219.328 142.811 219.425 143.77 219.405 144.318C219.405 144.36 219.402 144.403 219.398 144.442Z" fill="#2F2E41"/>
<path d="M216.925 144.341L217.763 144.376L218.163 144.391C218.155 143.883 218.423 142.776 217.608 142.756C216.855 142.714 216.952 143.673 216.932 144.217C216.932 144.259 216.929 144.302 216.925 144.341Z" fill="#2F2E41"/>
<path d="M214.452 144.244L215.286 144.275L215.69 144.29C215.682 143.824 215.908 142.85 215.31 142.683H215.306C215.25 142.666 215.193 142.658 215.135 142.659C215.064 142.653 214.993 142.66 214.925 142.679H214.921C214.401 142.815 214.475 143.63 214.459 144.12C214.459 144.162 214.456 144.205 214.452 144.244Z" fill="#2F2E41"/>
<path d="M228.952 143.98L230.191 144.03C230.191 143.984 230.191 143.933 230.194 143.875C230.225 143.579 230.23 143.282 230.21 142.985C230.167 142.659 230.028 142.403 229.635 142.395C229.236 142.372 229.076 142.628 229.014 142.958C229 143.014 228.989 143.072 228.983 143.129V143.133C228.952 143.436 228.972 143.762 228.952 143.98Z" fill="#2F2E41"/>
<path d="M226.479 143.879L227.718 143.929C227.744 143.596 227.752 143.261 227.741 142.927C227.706 142.585 227.57 142.306 227.162 142.298C226.751 142.271 226.592 142.55 226.53 142.896C226.471 143.23 226.502 143.63 226.479 143.879Z" fill="#2F2E41"/>
<path d="M224.006 143.782L224.375 143.797L225.245 143.832C225.241 143.646 225.276 143.374 225.279 143.106C225.283 143.026 225.28 142.945 225.272 142.865C225.241 142.504 225.113 142.205 224.689 142.197C224.258 142.174 224.107 142.473 224.053 142.838C223.998 143.164 224.029 143.541 224.006 143.782Z" fill="#2F2E41"/>
<path d="M228.975 146.209L230.214 146.256C230.21 145.751 230.474 144.64 229.659 144.624C228.843 144.574 229.022 145.7 228.975 146.209Z" fill="#2F2E41"/>
<path d="M226.502 146.108L227.741 146.159C227.737 145.65 228.001 144.539 227.186 144.523C226.37 144.477 226.549 145.603 226.502 146.108Z" fill="#2F2E41"/>
<path d="M224.029 146.011L225.268 146.058C225.264 145.696 225.4 145.028 225.179 144.671C225.13 144.592 225.061 144.527 224.979 144.484C224.897 144.441 224.805 144.421 224.713 144.426C224.586 144.413 224.458 144.445 224.352 144.516C223.956 144.776 224.068 145.599 224.029 146.011Z" fill="#2F2E41"/>
<path d="M221.556 145.91L222.795 145.96C222.791 145.599 222.923 144.935 222.709 144.574C222.661 144.494 222.592 144.428 222.509 144.384C222.426 144.34 222.333 144.32 222.24 144.325C222.112 144.311 221.984 144.343 221.878 144.415C221.482 144.683 221.595 145.502 221.556 145.91Z" fill="#2F2E41"/>
<path d="M219.083 145.813L220.322 145.859C220.318 145.498 220.454 144.83 220.232 144.473C220.184 144.394 220.115 144.329 220.033 144.286C219.951 144.243 219.859 144.223 219.767 144.228C219.639 144.215 219.512 144.246 219.405 144.318C219.009 144.578 219.122 145.401 219.083 145.813Z" fill="#2F2E41"/>
<path d="M216.61 145.712L217.849 145.762C217.845 145.401 217.977 144.737 217.763 144.376C217.715 144.295 217.646 144.229 217.563 144.185C217.48 144.142 217.387 144.121 217.294 144.127C217.166 144.113 217.038 144.145 216.932 144.217C216.536 144.485 216.649 145.304 216.61 145.712Z" fill="#2F2E41"/>
<path d="M214.137 145.615L215.376 145.661C215.372 145.3 215.504 144.636 215.286 144.275C215.238 144.195 215.17 144.131 215.088 144.088C215.005 144.044 214.913 144.025 214.82 144.03C214.693 144.017 214.566 144.048 214.459 144.12C214.063 144.384 214.176 145.203 214.137 145.615Z" fill="#2F2E41"/>
<path d="M228.124 142.025L237.563 122.054L241.132 113.723L235.523 110.528C235.523 110.528 233.612 116.711 231.615 119.876C229.645 122.998 224.348 140.183 224.237 140.653C223.658 140.891 223.165 141.3 222.824 141.824C222.483 142.349 222.309 142.965 222.325 143.591C222.341 144.216 222.547 144.823 222.915 145.329C223.283 145.835 223.796 146.218 224.386 146.426C224.976 146.634 225.615 146.659 226.219 146.495C226.823 146.332 227.364 145.989 227.769 145.512C228.174 145.035 228.425 144.446 228.488 143.824C228.552 143.201 228.425 142.574 228.124 142.025H228.124Z" fill="#A0616A"/>
<path d="M228.066 123.535L235.205 127.843L236.824 125.395L237.902 124.839L242.365 117.173L246.31 113.152L251.523 96.4833L244.74 97.5012L244.732 97.5042C243.523 98.1453 242.442 99.2914 240.961 100.302C236.292 103.485 232.266 113.798 230.348 119.549C230.317 119.643 230.188 119.709 230.037 119.774C229.326 120.078 228.742 120.618 228.383 121.303C228.024 121.988 227.912 122.777 228.066 123.535L228.066 123.535Z" fill="#F26335"/>
</g>
<defs>
<clipPath id="clip0_57_53">
<rect width="332" height="226" fill="white"/>
</clipPath>
</defs>
</svg>
