<svg width="24" height="24" viewBox="0 0 24 24" fill="none" xmlns="http://www.w3.org/2000/svg">
<path d="M12 24C10.375 24 8.82031 23.6836 7.33594 23.0508C5.85156 22.418 4.57422 21.5664 3.50391 20.4961C2.43359 19.4258 1.58203 18.1484 0.949219 16.6641C0.316406 15.1797 0 13.625 0 12C0 10.375 0.316406 8.82031 0.949219 7.33594C1.58203 5.85156 2.43359 4.57422 3.50391 3.50391C4.57422 2.43359 5.85156 1.58203 7.33594 0.949219C8.82031 0.316406 10.375 0 12 0C13.625 0 15.1797 0.316406 16.6641 0.949219C18.1484 1.58203 19.4258 2.43359 20.4961 3.50391C21.5664 4.57422 22.418 5.85156 23.0508 7.33594C23.6836 8.82031 24 10.375 24 12C24 13.625 23.6836 15.1797 23.0508 16.6641C22.418 18.1484 21.5664 19.4258 20.4961 20.4961C19.4258 21.5664 18.1484 22.418 16.6641 23.0508C15.1797 23.6836 13.625 24 12 24ZM19.0547 6C18.9609 6.04688 18.8203 6.13281 18.6328 6.25781L18.1758 6.5625L17.7422 6.79688L17.25 6.96094C16.6719 6.32031 15.9609 6 15.1172 6C13.2891 6 12.375 6.76562 12.375 8.29688V9.67969C9.85938 9.55469 7.92969 8.63281 6.58594 6.91406C6.19531 7.32031 6 7.76562 6 8.25C6 9.28125 6.38281 10.0625 7.14844 10.5938C7.05469 10.5938 6.92188 10.6016 6.75 10.6172C6.57812 10.6328 6.44141 10.6328 6.33984 10.6172C6.23828 10.6016 6.125 10.5625 6 10.5C6 11.2188 6.19141 11.8164 6.57422 12.293C6.95703 12.7695 7.48438 13.0781 8.15625 13.2188C8 13.4062 7.78125 13.5 7.5 13.5C7.25 13.5 7.03125 13.4297 6.84375 13.2891C6.84375 13.8984 7.13672 14.3711 7.72266 14.707C8.30859 15.043 8.96875 15.2188 9.70312 15.2344C9.42188 15.6562 9.01172 15.9727 8.47266 16.1836C7.93359 16.3945 7.35938 16.5 6.75 16.5C6.53125 16.5 6.23047 16.4453 5.84766 16.3359C5.46484 16.2266 5.26562 16.1719 5.25 16.1719C5.5 16.6719 6.01172 17.1016 6.78516 17.4609C7.55859 17.8203 8.53906 18 9.72656 18C10.7734 18 11.75 17.8164 12.6562 17.4492C13.5625 17.082 14.3359 16.5938 14.9766 15.9844C15.6172 15.375 16.168 14.6797 16.6289 13.8984C17.0898 13.1172 17.4336 12.3086 17.6602 11.4727C17.8867 10.6367 18 9.8125 18 9C18 8.96875 18.0938 8.90234 18.2812 8.80078C18.4688 8.69922 18.6875 8.5625 18.9375 8.39062C19.1875 8.21875 19.375 8.03906 19.5 7.85156C18.6562 7.85156 18.0938 7.86719 17.8125 7.89844C18.3594 7.57031 18.7734 6.9375 19.0547 6Z" fill="black"/>
</svg>
